<mxfile host="Electron" agent="Mozilla/5.0 (X11; Linux x86_64) AppleWebKit/537.36 (KHTML, like Gecko) draw.io/24.7.17 Chrome/128.0.6613.36 Electron/32.0.1 Safari/537.36" version="24.7.17">
  <diagram name="Page-1" id="e7e014a7-5840-1c2e-5031-d8a46d1fe8dd">
    <mxGraphModel dx="1110" dy="677" grid="1" gridSize="10" guides="1" tooltips="1" connect="1" arrows="1" fold="1" page="1" pageScale="1" pageWidth="1169" pageHeight="826" background="none" math="0" shadow="0">
      <root>
        <mxCell id="0" />
        <mxCell id="1" parent="0" />
        <mxCell id="zeiSc2qnZUBCbqKCPFnU-41" value="" style="ellipse;html=1;shape=startState;fillColor=#000000;strokeColor=#ff0000;" vertex="1" parent="1">
          <mxGeometry x="340" y="60" width="30" height="30" as="geometry" />
        </mxCell>
        <mxCell id="zeiSc2qnZUBCbqKCPFnU-42" value="" style="edgeStyle=orthogonalEdgeStyle;html=1;verticalAlign=bottom;endArrow=open;endSize=8;strokeColor=#ff0000;rounded=0;" edge="1" source="zeiSc2qnZUBCbqKCPFnU-41" parent="1">
          <mxGeometry relative="1" as="geometry">
            <mxPoint x="355" y="135" as="targetPoint" />
          </mxGeometry>
        </mxCell>
        <mxCell id="zeiSc2qnZUBCbqKCPFnU-43" value="" style="ellipse;html=1;shape=endState;fillColor=#000000;strokeColor=#ff0000;" vertex="1" parent="1">
          <mxGeometry x="339.38" y="510" width="30" height="30" as="geometry" />
        </mxCell>
        <mxCell id="zeiSc2qnZUBCbqKCPFnU-45" value="" style="rounded=1;whiteSpace=wrap;html=1;" vertex="1" parent="1">
          <mxGeometry x="740" y="470" width="120" height="60" as="geometry" />
        </mxCell>
        <mxCell id="zeiSc2qnZUBCbqKCPFnU-71" style="edgeStyle=orthogonalEdgeStyle;rounded=0;orthogonalLoop=1;jettySize=auto;html=1;" edge="1" parent="1" source="zeiSc2qnZUBCbqKCPFnU-59">
          <mxGeometry relative="1" as="geometry">
            <mxPoint x="290" y="150" as="targetPoint" />
            <mxPoint x="201.25" y="350" as="sourcePoint" />
            <Array as="points">
              <mxPoint x="161" y="150" />
            </Array>
          </mxGeometry>
        </mxCell>
        <mxCell id="zeiSc2qnZUBCbqKCPFnU-46" value="" style="rhombus;whiteSpace=wrap;html=1;" vertex="1" parent="1">
          <mxGeometry x="330" y="330" width="48.75" height="40" as="geometry" />
        </mxCell>
        <mxCell id="zeiSc2qnZUBCbqKCPFnU-47" value="Comment1 body" style="shape=note2;boundedLbl=1;whiteSpace=wrap;html=1;size=25;verticalAlign=top;align=center;" vertex="1" parent="1">
          <mxGeometry x="110" y="620" width="120" height="60" as="geometry" />
        </mxCell>
        <mxCell id="zeiSc2qnZUBCbqKCPFnU-48" value="Saisir mot de passe" style="rounded=1;whiteSpace=wrap;html=1;arcSize=40;fontColor=#000000;fillColor=#ffffc0;strokeColor=#ff0000;" vertex="1" parent="1">
          <mxGeometry x="830" y="610" width="120" height="40" as="geometry" />
        </mxCell>
        <mxCell id="zeiSc2qnZUBCbqKCPFnU-49" value="" style="edgeStyle=orthogonalEdgeStyle;html=1;verticalAlign=bottom;endArrow=open;endSize=8;strokeColor=#ff0000;rounded=0;" edge="1" source="zeiSc2qnZUBCbqKCPFnU-48" parent="1">
          <mxGeometry relative="1" as="geometry">
            <mxPoint x="890" y="710" as="targetPoint" />
          </mxGeometry>
        </mxCell>
        <mxCell id="zeiSc2qnZUBCbqKCPFnU-51" value="" style="ellipse;html=1;shape=startState;fillColor=#000000;strokeColor=#ff0000;" vertex="1" parent="1">
          <mxGeometry x="550" y="576" width="30" height="30" as="geometry" />
        </mxCell>
        <mxCell id="zeiSc2qnZUBCbqKCPFnU-52" value="" style="edgeStyle=orthogonalEdgeStyle;html=1;verticalAlign=bottom;endArrow=open;endSize=8;strokeColor=#ff0000;rounded=0;" edge="1" source="zeiSc2qnZUBCbqKCPFnU-51" parent="1">
          <mxGeometry relative="1" as="geometry">
            <mxPoint x="565" y="666" as="targetPoint" />
          </mxGeometry>
        </mxCell>
        <mxCell id="zeiSc2qnZUBCbqKCPFnU-53" value="" style="edgeStyle=orthogonalEdgeStyle;html=1;verticalAlign=bottom;endArrow=open;endSize=8;strokeColor=#ff0000;rounded=0;" edge="1" source="zeiSc2qnZUBCbqKCPFnU-54" parent="1">
          <mxGeometry relative="1" as="geometry">
            <mxPoint x="355" y="330" as="targetPoint" />
          </mxGeometry>
        </mxCell>
        <mxCell id="zeiSc2qnZUBCbqKCPFnU-54" value="Saisir identifiant&amp;nbsp;&lt;div&gt;et&lt;/div&gt;&lt;div&gt;mot de passe&lt;/div&gt;" style="rounded=1;whiteSpace=wrap;html=1;arcSize=40;fontColor=#000000;fillColor=#ffffc0;strokeColor=#ff0000;" vertex="1" parent="1">
          <mxGeometry x="295" y="235" width="120" height="50" as="geometry" />
        </mxCell>
        <mxCell id="zeiSc2qnZUBCbqKCPFnU-55" value="Page d&#39;accueil" style="rounded=1;whiteSpace=wrap;html=1;arcSize=40;fontColor=#000000;fillColor=#ffffc0;strokeColor=#ff0000;" vertex="1" parent="1">
          <mxGeometry x="295" y="410" width="120" height="40" as="geometry" />
        </mxCell>
        <mxCell id="zeiSc2qnZUBCbqKCPFnU-56" value="" style="edgeStyle=orthogonalEdgeStyle;html=1;verticalAlign=bottom;endArrow=open;endSize=8;strokeColor=#ff0000;rounded=0;" edge="1" source="zeiSc2qnZUBCbqKCPFnU-55" parent="1">
          <mxGeometry relative="1" as="geometry">
            <mxPoint x="355" y="510" as="targetPoint" />
          </mxGeometry>
        </mxCell>
        <mxCell id="zeiSc2qnZUBCbqKCPFnU-57" value="Page de connexion" style="rounded=1;whiteSpace=wrap;html=1;arcSize=40;fontColor=#000000;fillColor=#ffffc0;strokeColor=#ff0000;" vertex="1" parent="1">
          <mxGeometry x="295" y="135" width="120" height="40" as="geometry" />
        </mxCell>
        <mxCell id="zeiSc2qnZUBCbqKCPFnU-58" value="" style="edgeStyle=orthogonalEdgeStyle;html=1;verticalAlign=bottom;endArrow=open;endSize=8;strokeColor=#ff0000;rounded=0;" edge="1" source="zeiSc2qnZUBCbqKCPFnU-57" parent="1">
          <mxGeometry relative="1" as="geometry">
            <mxPoint x="355" y="235" as="targetPoint" />
          </mxGeometry>
        </mxCell>
        <mxCell id="zeiSc2qnZUBCbqKCPFnU-61" value="Saisir mot de passe" style="rounded=1;whiteSpace=wrap;html=1;arcSize=40;fontColor=#000000;fillColor=#ffffc0;strokeColor=#ff0000;" vertex="1" parent="1">
          <mxGeometry x="1000" y="40" width="120" height="40" as="geometry" />
        </mxCell>
        <mxCell id="zeiSc2qnZUBCbqKCPFnU-62" value="" style="edgeStyle=orthogonalEdgeStyle;html=1;verticalAlign=bottom;endArrow=open;endSize=8;strokeColor=#ff0000;rounded=0;" edge="1" source="zeiSc2qnZUBCbqKCPFnU-61" parent="1">
          <mxGeometry relative="1" as="geometry">
            <mxPoint x="1060" y="140" as="targetPoint" />
          </mxGeometry>
        </mxCell>
        <mxCell id="zeiSc2qnZUBCbqKCPFnU-66" value="" style="endArrow=open;endFill=1;endSize=12;html=1;rounded=0;exitX=0.5;exitY=1;exitDx=0;exitDy=0;" edge="1" parent="1" source="zeiSc2qnZUBCbqKCPFnU-46" target="zeiSc2qnZUBCbqKCPFnU-55">
          <mxGeometry width="160" relative="1" as="geometry">
            <mxPoint x="450" y="490" as="sourcePoint" />
            <mxPoint x="610" y="490" as="targetPoint" />
          </mxGeometry>
        </mxCell>
        <mxCell id="zeiSc2qnZUBCbqKCPFnU-67" value="Text" style="text;html=1;align=center;verticalAlign=middle;whiteSpace=wrap;rounded=0;" vertex="1" parent="1">
          <mxGeometry x="440" y="580" width="60" height="30" as="geometry" />
        </mxCell>
        <mxCell id="zeiSc2qnZUBCbqKCPFnU-69" value="identifiant &amp;amp; mdp corrects" style="text;html=1;align=center;verticalAlign=middle;whiteSpace=wrap;rounded=0;" vertex="1" parent="1">
          <mxGeometry x="370" y="370" width="80" height="30" as="geometry" />
        </mxCell>
        <mxCell id="zeiSc2qnZUBCbqKCPFnU-72" value="identifiant inconnu" style="text;html=1;align=center;verticalAlign=middle;whiteSpace=wrap;rounded=0;" vertex="1" parent="1">
          <mxGeometry x="70" y="300" width="80" height="30" as="geometry" />
        </mxCell>
        <mxCell id="zeiSc2qnZUBCbqKCPFnU-59" value="Afficher msg d&#39;erreur &quot;Votre identifiant n&#39;est pas connu&quot;" style="rounded=1;whiteSpace=wrap;html=1;arcSize=40;fontColor=#000000;fillColor=#ffffc0;strokeColor=#ff0000;" vertex="1" parent="1">
          <mxGeometry x="100" y="220" width="120" height="45" as="geometry" />
        </mxCell>
        <mxCell id="zeiSc2qnZUBCbqKCPFnU-78" value="" style="edgeStyle=segmentEdgeStyle;endArrow=classic;html=1;curved=0;rounded=0;endSize=8;startSize=8;exitX=0;exitY=0.5;exitDx=0;exitDy=0;" edge="1" parent="1" source="zeiSc2qnZUBCbqKCPFnU-46">
          <mxGeometry width="50" height="50" relative="1" as="geometry">
            <mxPoint x="110" y="315" as="sourcePoint" />
            <mxPoint x="160" y="265" as="targetPoint" />
          </mxGeometry>
        </mxCell>
        <mxCell id="zeiSc2qnZUBCbqKCPFnU-79" style="edgeStyle=orthogonalEdgeStyle;rounded=0;orthogonalLoop=1;jettySize=auto;html=1;entryX=1;entryY=0.5;entryDx=0;entryDy=0;" edge="1" parent="1" source="zeiSc2qnZUBCbqKCPFnU-81" target="zeiSc2qnZUBCbqKCPFnU-57">
          <mxGeometry relative="1" as="geometry">
            <mxPoint x="860" y="110" as="targetPoint" />
            <mxPoint x="771.25" y="310" as="sourcePoint" />
            <Array as="points">
              <mxPoint x="550" y="155" />
            </Array>
          </mxGeometry>
        </mxCell>
        <mxCell id="zeiSc2qnZUBCbqKCPFnU-80" value="mot de passe incorrect" style="text;html=1;align=center;verticalAlign=middle;whiteSpace=wrap;rounded=0;" vertex="1" parent="1">
          <mxGeometry x="560" y="330" width="80" height="30" as="geometry" />
        </mxCell>
        <mxCell id="zeiSc2qnZUBCbqKCPFnU-83" value="" style="edgeStyle=segmentEdgeStyle;endArrow=classic;html=1;curved=0;rounded=0;endSize=8;startSize=8;" edge="1" parent="1" target="zeiSc2qnZUBCbqKCPFnU-81">
          <mxGeometry width="50" height="50" relative="1" as="geometry">
            <mxPoint x="380" y="350" as="sourcePoint" />
            <mxPoint x="730" y="225" as="targetPoint" />
          </mxGeometry>
        </mxCell>
        <mxCell id="zeiSc2qnZUBCbqKCPFnU-81" value="Afficher msg d&#39;erreur &quot;mot de passe incorrect ...&quot;" style="rounded=1;whiteSpace=wrap;html=1;arcSize=40;fontColor=#000000;fillColor=#ffffc0;strokeColor=#ff0000;" vertex="1" parent="1">
          <mxGeometry x="490" y="265" width="120" height="45" as="geometry" />
        </mxCell>
        <mxCell id="zeiSc2qnZUBCbqKCPFnU-89" style="edgeStyle=orthogonalEdgeStyle;rounded=0;orthogonalLoop=1;jettySize=auto;html=1;entryX=0;entryY=0.5;entryDx=0;entryDy=0;" edge="1" parent="1" source="zeiSc2qnZUBCbqKCPFnU-84" target="zeiSc2qnZUBCbqKCPFnU-88">
          <mxGeometry relative="1" as="geometry" />
        </mxCell>
        <mxCell id="zeiSc2qnZUBCbqKCPFnU-84" value="Incrémenter compteur d&#39;essais incorrects" style="rounded=1;whiteSpace=wrap;html=1;arcSize=40;fontColor=#000000;fillColor=#ffffc0;strokeColor=#ff0000;" vertex="1" parent="1">
          <mxGeometry x="490" y="190" width="120" height="45" as="geometry" />
        </mxCell>
        <mxCell id="zeiSc2qnZUBCbqKCPFnU-88" value="" style="rhombus;whiteSpace=wrap;html=1;" vertex="1" parent="1">
          <mxGeometry x="730" y="192.5" width="48.75" height="40" as="geometry" />
        </mxCell>
      </root>
    </mxGraphModel>
  </diagram>
</mxfile>
